<?xml version="1.0" encoding="utf-8"?>
<!DOCTYPE svg PUBLIC "-//W3C//DTD SVG 1.0//EN" "http://www.w3.org/TR/2001/REC-SVG-20010904/DTD/svg10.dtd">
<svg version="1.0" xmlns="http://www.w3.org/2000/svg" width="755px" height="804px" viewBox="0 0 755 804" preserveAspectRatio="xMidYMid meet">
 <!-- The original export from the design tool included a full-canvas
      white background plate with rounded-square cutouts. Removed
      2026-05-18 — it was making the navbar logo render with a visible
      white background (footer's smaller 24px size masked it). The
      colored tile + outline groups below render the logo on a truly
      transparent canvas. -->
 <g fill="#16afad">
  <path d="M124.44 643.42 c-4.19 -1.45 -8.30 -5.02 -10.88 -9.29 l-2.05 -3.58 -0.23 -59.97 c-0.15 -59.75 -0.15 -59.90 1.45 -63.70 0.91 -2.05 3.12 -5.10 4.87 -6.77 6.01 -5.56 3.88 -5.40 71.24 -5.40 58.53 0 60.13 0.08 64.16 1.52 5.40 2.05 9.89 6.85 11.49 12.41 1.07 3.65 1.14 11.19 0.99 63.02 -0.23 55.71 -0.30 59.06 -1.67 61.57 -2.28 4.41 -6.62 8.30 -10.88 9.89 -3.96 1.45 -5.94 1.52 -64.77 1.45 -50.61 0 -61.19 -0.23 -63.70 -1.14z"/>
  <path d="M315.62 643.58 c-6.16 -2.28 -10.50 -6.55 -12.56 -12.56 -0.68 -1.90 -0.91 -18.65 -0.91 -62.10 l0 -59.44 1.98 -3.96 c1.07 -2.21 3.20 -4.95 4.72 -6.24 5.78 -4.72 3.65 -4.64 71.39 -4.41 61.42 0.23 61.57 0.23 64.62 1.90 4.03 2.13 6.77 5.18 8.90 9.74 l1.75 3.81 0.23 57.46 c0.15 39.58 -0.08 58.68 -0.68 61.42 -0.99 5.02 -4.49 9.74 -9.44 12.79 l-3.65 2.28 -61.72 0.15 c-50.46 0.15 -62.26 0 -64.62 -0.84z"/>
  <path d="M314.94 457.87 c-1.60 -0.61 -3.73 -1.60 -4.79 -2.28 -2.66 -1.75 -6.32 -7 -7.23 -10.43 -0.53 -1.90 -0.76 -23.82 -0.61 -62.87 l0.23 -59.97 1.90 -3.42 c2.21 -3.96 7.23 -7.99 11.26 -9.13 1.83 -0.46 24.20 -0.76 64.01 -0.76 60.20 0 61.27 0 64.46 1.52 1.75 0.91 4.64 3.12 6.32 4.95 5.63 6.09 5.48 4.03 5.25 70.48 l-0.23 58.98 -1.98 3.73 c-2.13 4.26 -6.93 8.30 -11.19 9.51 -4.57 1.22 -123.83 0.99 -127.41 -0.30z"/>
  <path d="M314.94 272.17 c-4.03 -1.45 -6.24 -3.04 -8.68 -6.16 -4.19 -5.48 -4.03 -3.73 -4.11 -67.51 0 -52.29 0.15 -59.59 1.22 -62.79 1.67 -5.10 4.03 -7.92 8.75 -10.50 l4.11 -2.28 61.88 -0.23 c61.65 -0.15 61.80 -0.15 65.61 1.45 2.05 0.91 5.10 3.12 6.77 4.87 5.63 6.09 5.48 4.03 5.25 70.86 l-0.23 59.29 -2.21 4.03 c-2.36 4.19 -5.63 7.15 -9.97 8.98 -3.73 1.52 -124.06 1.52 -128.40 0z"/>
  <path d="M504.83 272.01 c-3.81 -1.37 -8.52 -5.71 -10.50 -9.82 -1.45 -2.97 -1.52 -5.18 -1.75 -62.33 -0.23 -68.04 -0.46 -65.15 5.86 -71.31 6.55 -6.32 2.97 -6.01 71.62 -6.01 66.60 0 64.46 -0.15 70.17 4.57 1.52 1.29 3.73 4.26 4.95 6.70 l2.13 4.34 0 60.13 c0 66.52 0.30 62.41 -4.95 68.42 -1.37 1.52 -3.96 3.58 -5.63 4.49 l-3.12 1.67 -62.79 0.15 c-54.11 0.08 -63.25 0 -65.99 -0.99z"/>
 </g>
 <g fill="#0a4444">
  <path d="M126.87 648.37 c-7.76 -1.83 -14.31 -7 -17.81 -14.31 l-2.13 -4.26 0 -60.51 0 -60.51 2.05 -3.81 c2.74 -5.18 7.69 -9.74 13.17 -12.33 l4.57 -2.13 60.05 -0.23 c58.76 -0.23 60.20 -0.15 65.23 1.37 6.47 1.98 12.56 7.23 15.68 13.55 l2.13 4.34 0.23 58.60 c0.23 65 0.38 62.33 -4.79 70.02 -1.45 2.13 -4.26 4.87 -6.24 6.24 -7.23 4.87 -6.62 4.79 -71.01 4.72 -32.04 -0.08 -59.52 -0.38 -61.12 -0.76z m123.75 -7.53 c4.26 -1.60 8.60 -5.48 10.88 -9.89 1.37 -2.51 1.45 -5.78 1.67 -59.29 0.15 -49.78 0.08 -57.08 -0.99 -60.73 -1.60 -5.56 -6.09 -10.35 -11.49 -12.41 -4.03 -1.45 -5.71 -1.52 -61.88 -1.52 -64.77 0 -62.94 -0.15 -68.95 5.40 -1.75 1.67 -3.96 4.72 -4.87 6.77 -1.60 3.81 -1.60 4.03 -1.45 61.42 l0.23 57.69 2.05 3.58 c1.22 1.90 3.42 4.57 4.95 5.86 5.63 4.64 3.50 4.49 67.36 4.57 56.55 0.08 58.53 0 62.49 -1.45z"/>
  <path d="M316.46 648.07 c-7.92 -2.13 -13.70 -7.15 -17.28 -14.84 l-1.98 -4.19 0 -59.36 0 -59.36 2.21 -4.72 c2.59 -5.63 7.15 -10.20 12.86 -12.86 l3.96 -1.83 62.79 0 c60.28 0 62.94 0.08 65.99 1.52 4.72 2.05 10.58 7.92 12.94 12.86 l2.13 4.26 0 60.13 0 60.13 -2.21 4.49 c-2.74 5.56 -7.15 9.97 -12.63 12.56 l-4.19 1.98 -60.51 0.15 c-48.02 0.08 -61.27 -0.08 -64.08 -0.91z m126.87 -8.37 c4.95 -3.04 8.45 -7.76 9.51 -12.79 0.53 -2.74 0.76 -21.16 0.61 -59.14 l-0.23 -55.18 -1.75 -3.81 c-2.13 -4.57 -4.87 -7.61 -8.90 -9.74 -3.04 -1.67 -3.27 -1.67 -62.33 -1.90 -65.23 -0.23 -63.32 -0.30 -69.11 4.41 -1.52 1.29 -3.65 4.03 -4.72 6.24 l-1.98 3.96 0 57.16 c0 41.71 0.23 57.92 0.91 59.82 1.29 3.88 4.11 7.69 7.08 9.74 5.86 3.96 4.03 3.88 67.81 3.65 l59.44 -0.15 3.65 -2.28z"/>
  <path d="M125.50 462.06 c-8.07 -2.59 -12.86 -7.08 -16.82 -15.68 l-1.75 -3.81 0 -58.98 0 -58.98 2.51 -5.18 c2.97 -6.01 8.30 -10.73 14.84 -13.17 3.81 -1.37 6.39 -1.45 64.84 -1.45 l60.89 0 4.26 1.98 c6.01 2.82 10.12 6.85 13.01 12.71 l2.51 5.10 0 59.36 0 59.36 -2.05 4.34 c-2.59 5.56 -7.84 10.81 -13.40 13.40 l-4.34 2.05 -60.13 0.15 c-56.09 0.15 -60.43 0.08 -64.39 -1.22z"/>
  <path d="M314.41 461.90 c-6.39 -2.05 -12.63 -8.07 -15.37 -14.77 l-1.83 -4.57 0 -58.98 0 -58.98 2.21 -4.72 c2.51 -5.56 7.84 -10.88 13.17 -13.40 l3.65 -1.67 62.41 0 62.41 0 4.26 1.98 c5.48 2.59 10.20 7.31 12.79 12.79 l1.98 4.26 0.23 59.44 c0.15 58.83 0.15 59.59 -1.37 63.78 -2.13 5.63 -7.92 11.87 -13.09 14.23 l-4.03 1.83 -61.27 0.15 c-59.82 0.15 -61.42 0.15 -66.14 -1.37z m125.66 -6.01 c4.26 -1.22 9.06 -5.25 11.19 -9.51 l1.98 -3.73 0.23 -56.70 c0.23 -63.93 0.38 -62.10 -5.25 -68.19 -1.67 -1.83 -4.57 -4.03 -6.32 -4.95 -3.20 -1.52 -4.26 -1.52 -62.18 -1.52 -38.21 0 -59.90 0.30 -61.72 0.76 -4.03 1.14 -9.06 5.18 -11.26 9.13 l-1.90 3.42 -0.23 57.69 c-0.15 37.52 0.08 58.68 0.61 60.58 0.91 3.42 4.57 8.68 7.23 10.43 5.02 3.27 4.79 3.27 66.21 3.35 38.13 0 59.59 -0.30 61.42 -0.76z"/>
  <path d="M506.89 462.06 c-7.84 -2.51 -13.40 -7.46 -16.97 -15.07 l-1.67 -3.65 0 -59.36 0 -59.36 2.51 -5.10 c3.81 -7.84 10.35 -12.71 19.33 -14.31 2.66 -0.53 25.12 -0.76 62.71 -0.61 l58.53 0.23 4.26 1.98 c6.01 2.82 10.12 6.85 13.01 12.71 l2.51 5.10 0 59.36 0 59.36 -1.98 4.26 c-2.74 5.78 -6.55 9.82 -12.25 12.94 l-4.79 2.59 -60.51 0.15 c-56.17 0.15 -60.81 0.08 -64.69 -1.22z"/>
  <path d="M314.18 276.20 c-8.30 -2.97 -14.77 -10.81 -16.59 -20.09 -0.61 -3.27 -0.76 -20.70 -0.61 -60.89 l0.23 -56.32 1.75 -4.26 c2.59 -6.39 6.62 -10.58 13.24 -13.70 l5.56 -2.59 61.65 0 61.65 0 4.26 1.98 c5.48 2.59 10.20 7.31 12.79 12.79 l1.98 4.26 0 60.89 c0 60.81 0 60.89 -1.67 64.46 -2.28 5.02 -7 9.82 -12.18 12.48 l-4.41 2.21 -61.65 0.15 c-59.97 0.15 -61.80 0.08 -65.99 -1.37z m126.87 -6.32 c4.34 -1.83 7.61 -4.79 9.97 -8.98 l2.21 -4.03 0.23 -57.01 c0.23 -64.24 0.38 -62.49 -5.25 -68.57 -1.67 -1.75 -4.72 -3.96 -6.77 -4.87 -3.81 -1.60 -3.96 -1.60 -63.32 -1.45 l-59.59 0.23 -4.11 2.28 c-4.72 2.59 -7.08 5.40 -8.75 10.50 -1.07 3.20 -1.22 10.27 -1.22 60.51 0.08 61.34 0 59.75 4.11 65.23 2.44 3.12 4.64 4.72 8.68 6.16 4.34 1.52 120.10 1.52 123.83 0z"/>
  <path d="M505.36 276.50 c-7.08 -2.44 -11.80 -6.70 -14.99 -13.55 l-2.13 -4.57 0 -60.51 c0 -60.43 0 -60.51 1.67 -64.08 2.21 -4.79 7.38 -10.20 11.80 -12.48 2.13 -1.07 6.24 -2.21 9.59 -2.66 3.65 -0.46 27.32 -0.68 63.32 -0.53 l57.46 0.23 4.26 1.98 c6.01 2.82 10.12 6.85 13.01 12.71 l2.51 5.10 0 60.13 0 60.13 -2.05 4.34 c-2.51 5.40 -7.23 10.12 -12.71 12.71 l-4.26 1.98 -62.03 0.15 c-54.95 0.15 -62.41 0 -65.45 -1.07z m129.08 -7.61 c1.67 -0.91 4.26 -2.97 5.63 -4.49 5.25 -6.01 4.95 -2.13 4.95 -66.14 l0 -57.84 -2.13 -4.34 c-1.22 -2.44 -3.42 -5.40 -4.95 -6.70 -5.71 -4.72 -3.81 -4.57 -67.89 -4.57 -66.06 0 -62.79 -0.30 -69.34 6.01 -6.32 6.09 -6.09 3.58 -5.86 69.03 0.23 54.87 0.30 57.08 1.75 60.05 0.76 1.60 2.82 4.26 4.41 5.78 5.48 5.40 2.51 5.18 69.79 5.02 l60.51 -0.15 3.12 -1.67z"/>
 </g>
</svg>
